<?xml version="1.0"?>
<svg xmlns="http://www.w3.org/2000/svg" xmlns:xlink="http://www.w3.org/1999/xlink" xmlns:svgjs="http://svgjs.com/svgjs" version="1.1" width="512" height="512" x="0" y="0" viewBox="0 0 511.693 511.693" style="enable-background:new 0 0 512 512" xml:space="preserve" class=""><g>
<g xmlns="http://www.w3.org/2000/svg">
	<path d="M461.68,98.238c-1.126-28.516-24.553-54.252-65.964-72.467C357.932,9.152,308.259,0,255.847,0   c-53.041,0-103.142,9.344-141.072,26.31c-41.769,18.683-64.772,44.981-64.772,74.052v70.794h141.089v-54.874   c20.342-3.801,41.869-5.724,64.16-5.724c22.752,0,44.678,1.996,65.351,5.942v54.655h141.089V98.83L461.68,98.238z M431.691,141.155   h-81.089V92.422l-11.61-2.694c-26.225-6.085-54.4-9.17-83.741-9.17c-28.842,0-56.596,2.99-82.491,8.889l-11.669,2.657v49.052   H80.002v-40.794C80.002,67.081,152.219,30,255.847,30c101.751,0,174.179,36.395,175.845,69.164V141.155z" fill="#253644" data-original="#000000" style="" class=""/>
	<path d="M255.847,244.292c-22.359-15.968-81.56-48.804-190.271-48.804h-15v264.08h15c121.418,0,173.814,43.396,179.389,48.344   l4.261,3.781h13.242l4.261-3.781c5.575-4.948,57.971-48.344,179.389-48.344h15v-264.08h-15   C337.407,195.488,278.206,228.324,255.847,244.292z M80.576,225.718c58.461,1.806,99.018,13.931,123.355,24.229   c18.855,7.979,30.905,16.021,36.916,20.563v198.275c-27.71-15.884-79.063-36.692-160.271-39.004V225.718z M431.118,429.78   c-81.208,2.313-132.561,23.12-160.271,39.004V270.51c6.01-4.542,18.056-12.582,36.916-20.563   c24.337-10.299,64.895-22.424,123.355-24.229V429.78z" fill="#253644" data-original="#000000" style="" class=""/>
</g>















</g></svg>
