<?xml version="1.0" encoding="iso-8859-1"?>
<!-- Generator: Adobe Illustrator 19.0.0, SVG Export Plug-In . SVG Version: 6.00 Build 0)  -->
<svg version="1.1" id="Layer_1" xmlns="http://www.w3.org/2000/svg" xmlns:xlink="http://www.w3.org/1999/xlink" x="0px" y="0px"
	 viewBox="0 0 330 330" style="enable-background:new 0 0 330 330;" xml:space="preserve" fill="#253644">
<g id="XMLID_16_">
	<path id="XMLID_17_" d="M305,0H105C69.159,0,40,29.159,40,65v15H25c-8.284,0-15,6.716-15,15s6.716,15,15,15h15v40H25
		c-8.284,0-15,6.716-15,15s6.716,15,15,15h15v40H25c-8.284,0-15,6.716-15,15s6.716,15,15,15h15v15c0,35.841,29.159,65,65,65h200
		c8.284,0,15-6.716,15-15V15C320,6.716,313.284,0,305,0z M290,300H105c-19.299,0-35-15.701-35-35V65c0-19.299,15.701-35,35-35h185
		V300z"/>
	<path id="XMLID_128_" d="M135.495,223.13c-0.296-0.295-20.494-20.494-20.494-20.494l30.67-30.67l20.526,20.525l41.283-41.282
		l-20.526-20.526l30.683-30.682c0,0,20.199,20.198,20.494,20.494c15.132,15.13,4.425,50.374-23.918,78.716
		C185.871,227.554,150.626,238.261,135.495,223.13z"/>
</g>
<g>
</g>
<g>
</g>
<g>
</g>
<g>
</g>
<g>
</g>
<g>
</g>
<g>
</g>
<g>
</g>
<g>
</g>
<g>
</g>
<g>
</g>
<g>
</g>
<g>
</g>
<g>
</g>
<g>
</g>
</svg>
