<svg height="395pt" viewBox="-3 0 395 395.94538" width="395pt" xmlns="http://www.w3.org/2000/svg"><path d="m198.445312 389.117188-191.144531-27.304688v-327.679688l191.144531-27.308593zm0 0" fill="#94c1ff"/><path d="m198.445312 395.945312c-.320312 0-.644531-.023437-.964843-.070312l-191.148438-27.304688c-3.359375-.484374-5.859375-3.363281-5.859375-6.757812v-327.679688c0-3.398437 2.5-6.277343 5.859375-6.757812l191.148438-27.3046875c1.957031-.2812505 3.945312.3007815 5.441406 1.5976565 1.492187 1.296875 2.351563 3.175781 2.351563 5.15625v382.292969c0 1.980468-.859376 3.863281-2.355469 5.15625-1.246094 1.085937-2.839844 1.671874-4.472657 1.671874zm-184.320312-40.054687 177.496094 25.355469v-366.550782l-177.496094 25.355469zm0 0" fill="#0e65e5"/><path d="m198.445312 61.4375h184.320313v279.894531h-184.320313zm0 0" fill="#d7e9ff"/><g fill="#0e65e5"><path d="m382.765625 348.160156h-184.320313c-3.773437 0-6.824218-3.058594-6.824218-6.828125v-279.894531c0-3.769531 3.050781-6.824219 6.824218-6.824219h184.320313c3.773437 0 6.828125 3.054688 6.828125 6.824219v279.894531c0 3.769531-3.054688 6.828125-6.828125 6.828125zm-177.492187-13.65625h170.664062v-266.238281h-170.664062zm0 0"/><path d="m62.105469 226.722656 22.945312-33.507812-19.304687-29.800782c-1.820313-2.890624-3.1875-5.371093-4.09375-7.449218-.90625-2.074219-1.367188-4.070313-1.367188-5.980469 0-1.960937.882813-3.722656 2.628906-5.285156 1.746094-1.5625 3.878907-2.34375 6.398438-2.34375 2.894531 0 5.140625.851562 6.753906 2.554687 1.605469 1.703125 3.832032 4.863282 6.679688 9.480469l15.386718 24.902344 16.441407-24.902344c1.351562-2.097656 2.507812-3.894531 3.464843-5.386719.953126-1.492187 1.875-2.730468 2.761719-3.710937.886719-.976563 1.878907-1.710938 2.972657-2.203125 1.089843-.488282 2.367187-.734375 3.8125-.734375 2.613281 0 4.746093.78125 6.398437 2.34375 1.65625 1.5625 2.488281 3.417969 2.488281 5.5625 0 3.125-1.800781 7.367187-5.386718 12.730469l-20.222657 30.222656 21.761719 33.507812c1.953125 2.9375 3.378906 5.378906 4.265625 7.3125.882813 1.9375 1.328125 3.765625 1.328125 5.488282 0 1.632812-.398438 3.128906-1.1875 4.480468-.792969 1.351563-1.914062 2.421875-3.359375 3.21875-1.449219.792969-3.082031 1.1875-4.902344 1.1875-1.953125 0-3.609375-.410156-4.964843-1.226562-1.351563-.8125-2.445313-1.828125-3.285157-3.042969-.839843-1.210937-2.402343-3.566406-4.6875-7.0625l-18.046875-28.402344-19.164062 29.242188c-1.492188 2.328125-2.554688 3.964843-3.1875 4.898437-.625.933594-1.386719 1.839844-2.273438 2.726563-.886718.886719-1.933594 1.585937-3.144531 2.097656-1.214844.511719-2.636719.769531-4.269531.769531-2.519532 0-4.605469-.769531-6.257813-2.308594-1.660156-1.539062-2.488281-3.777343-2.488281-6.71875 0-3.449218 1.707031-7.667968 5.105469-12.660156zm0 0"/><path d="m348.632812 149.957031h-150.1875c-3.644531 0-6.597656-2.953125-6.597656-6.597656v-40.960937c0-3.644532 2.953125-6.597657 6.597656-6.597657h150.1875c3.648438 0 6.597657 2.953125 6.597657 6.597657v40.960937c0 3.640625-2.949219 6.597656-6.597657 6.597656zm-143.585937-13.199219h136.984375v-27.757812h-136.984375zm0 0"/></g><path d="m198.445312 143.359375h150.1875v40.960937h-150.1875zm0 0" fill="#94c1ff"/><path d="m348.632812 191.144531h-150.1875c-3.773437 0-6.824218-3.054687-6.824218-6.824219v-40.960937c0-3.769531 3.050781-6.828125 6.824218-6.828125h150.1875c3.773438 0 6.828126 3.058594 6.828126 6.828125v40.960937c0 3.769532-3.054688 6.824219-6.828126 6.824219zm-143.359374-13.652343h136.53125v-27.308594h-136.53125zm0 0" fill="#0e65e5"/><path d="m348.632812 231.878906h-150.1875c-3.644531 0-6.597656-2.957031-6.597656-6.601562v-40.957032c0-3.644531 2.953125-6.601562 6.597656-6.601562h150.1875c3.648438 0 6.597657 2.957031 6.597657 6.601562v40.957032c0 3.644531-2.949219 6.601562-6.597657 6.601562zm-143.585937-13.203125h136.984375v-27.757812h-136.984375zm0 0" fill="#0e65e5"/><path d="m198.445312 225.277344h150.1875v40.960937h-150.1875zm0 0" fill="#94c1ff"/><path d="m348.632812 273.066406h-150.1875c-3.773437 0-6.824218-3.058594-6.824218-6.828125v-40.960937c0-3.769532 3.050781-6.824219 6.824218-6.824219h150.1875c3.773438 0 6.828126 3.054687 6.828126 6.824219v40.960937c0 3.769531-3.054688 6.828125-6.828126 6.828125zm-143.359374-13.65625h136.53125v-27.304687h-136.53125zm0 0" fill="#0e65e5"/><path d="m348.632812 313.796875h-150.1875c-3.644531 0-6.597656-2.953125-6.597656-6.597656v-40.960938c0-3.644531 2.953125-6.597656 6.597656-6.597656h150.1875c3.648438 0 6.597657 2.953125 6.597657 6.597656v40.960938c0 3.640625-2.949219 6.597656-6.597657 6.597656zm-143.585937-13.199219h136.984375v-27.761718h-136.984375zm0 0" fill="#0e65e5"/><path d="m300.847656 313.796875c-3.648437 0-6.601562-2.953125-6.601562-6.597656v-204.800781c0-3.644532 2.953125-6.597657 6.601562-6.597657 3.644532 0 6.597656 2.953125 6.597656 6.597657v204.800781c0 3.640625-2.953124 6.597656-6.597656 6.597656zm0 0" fill="#0e65e5"/><path d="m41.433594 88.746094c-3.773438 0-6.828125-3.058594-6.828125-6.828125v-27.304688c0-3.769531 3.054687-6.828125 6.828125-6.828125 3.773437 0 6.824218 3.058594 6.824218 6.828125v27.304688c0 3.769531-3.050781 6.828125-6.824218 6.828125zm0 0" fill="#fff"/><path d="m55.085938 75.09375h-27.304688c-3.773438 0-6.828125-3.058594-6.828125-6.828125s3.054687-6.828125 6.828125-6.828125h27.304688c3.773437 0 6.828124 3.058594 6.828124 6.828125s-3.054687 6.828125-6.828124 6.828125zm0 0" fill="#fff"/><path d="m362.285156 88.746094h-47.785156c-3.773438 0-6.828125-3.058594-6.828125-6.828125s3.054687-6.824219 6.828125-6.824219h47.785156c3.773438 0 6.828125 3.054688 6.828125 6.824219s-3.054687 6.828125-6.828125 6.828125zm0 0" fill="#fff"/></svg>