<svg height="395pt" viewBox="-3 0 395 395.94538" width="395pt" xmlns="http://www.w3.org/2000/svg"><path d="m198.445312 389.117188-191.144531-27.304688v-327.679688l191.144531-27.308593zm0 0" fill="#94c1ff"/><path d="m198.445312 395.945312c-.320312 0-.644531-.023437-.964843-.070312l-191.148438-27.304688c-3.359375-.484374-5.859375-3.363281-5.859375-6.757812v-327.679688c0-3.398437 2.5-6.277343 5.859375-6.757812l191.148438-27.3046875c1.957031-.2812505 3.945312.3007815 5.441406 1.5976565 1.492187 1.296875 2.351563 3.175781 2.351563 5.15625v382.292969c0 1.980468-.859376 3.863281-2.355469 5.15625-1.246094 1.085937-2.839844 1.671874-4.472657 1.671874zm-184.320312-40.054687 177.496094 25.355469v-366.550782l-177.496094 25.355469zm0 0" fill="#0e65e5"/><path d="m198.445312 61.4375h184.320313v279.894531h-184.320313zm0 0" fill="#d7e9ff"/><g fill="#0e65e5"><path d="m382.765625 348.160156h-184.320313c-3.773437 0-6.824218-3.058594-6.824218-6.828125v-279.894531c0-3.769531 3.050781-6.824219 6.824218-6.824219h184.320313c3.773437 0 6.828125 3.054688 6.828125 6.824219v279.894531c0 3.769531-3.054688 6.828125-6.828125 6.828125zm-177.492187-13.65625h170.664062v-266.238281h-170.664062zm0 0"/><path d="m321.324219 122.652344h-122.878907c-3.644531 0-6.597656-2.957032-6.597656-6.601563 0-3.640625 2.953125-6.597656 6.597656-6.597656h122.878907c3.648437 0 6.601562 2.957031 6.601562 6.597656 0 3.644531-2.953125 6.601563-6.601562 6.601563zm0 0"/><path d="m321.324219 156.785156h-122.878907c-3.644531 0-6.597656-2.957031-6.597656-6.601562 0-3.640625 2.953125-6.597656 6.597656-6.597656h122.878907c3.648437 0 6.601562 2.957031 6.601562 6.597656 0 3.644531-2.953125 6.601562-6.601562 6.601562zm0 0"/><path d="m321.324219 190.917969h-122.878907c-3.644531 0-6.597656-2.957031-6.597656-6.597657 0-3.644531 2.953125-6.601562 6.597656-6.601562h122.878907c3.648437 0 6.601562 2.957031 6.601562 6.601562 0 3.640626-2.953125 6.597657-6.601562 6.597657zm0 0"/><path d="m321.324219 225.050781h-122.878907c-3.644531 0-6.597656-2.953125-6.597656-6.597656s2.953125-6.601563 6.597656-6.601563h122.878907c3.648437 0 6.601562 2.957032 6.601562 6.601563s-2.953125 6.597656-6.601562 6.597656zm0 0"/><path d="m321.324219 259.183594h-122.878907c-3.644531 0-6.597656-2.953125-6.597656-6.597656 0-3.644532 2.953125-6.601563 6.597656-6.601563h122.878907c3.648437 0 6.601562 2.957031 6.601562 6.601563 0 3.644531-2.953125 6.597656-6.601562 6.597656zm0 0"/><path d="m321.324219 293.320312h-122.878907c-3.644531 0-6.597656-2.957031-6.597656-6.601562s2.953125-6.601562 6.597656-6.601562h122.878907c3.648437 0 6.601562 2.957031 6.601562 6.601562s-2.953125 6.601562-6.601562 6.601562zm0 0"/><path d="m116.585938 230.5-16.582032-61.488281-16.785156 61.488281c-1.308594 4.664062-2.347656 8.011719-3.113281 10.042969-.773438 2.027343-2.113281 3.84375-4.027344 5.453125-1.910156 1.609375-4.449219 2.414062-7.617187 2.414062-2.566407 0-4.679688-.480468-6.335938-1.4375-1.652344-.953125-3-2.304687-4.019531-4.054687-1.027344-1.746094-1.867188-3.824219-2.519531-6.226563-.652344-2.398437-1.242188-4.628906-1.753907-6.679687l-17.066406-69.046875c-1.027344-4.011719-1.539063-7.0625-1.539063-9.164063 0-2.65625.933594-4.894531 2.800782-6.714843 1.867187-1.816407 4.171875-2.730469 6.929687-2.730469 3.773438 0 6.316407 1.214843 7.625 3.636719 1.300781 2.429687 2.449219 5.949218 3.425781 10.5625l13.429688 59.886718 15.042969-56.035156c1.113281-4.292969 2.121093-7.558594 3.007812-9.796875s2.328125-4.171875 4.332031-5.800781c2.007813-1.632813 4.734376-2.453125 8.1875-2.453125 3.5 0 6.214844.851562 8.152344 2.554687 1.933594 1.703125 3.273438 3.554688 4.019532 5.558594.75 2.007812 1.746093 5.316406 3.007812 9.9375l15.179688 56.035156 13.433593-59.886718c.65625-3.121094 1.265625-5.570313 1.855469-7.34375.578125-1.773438 1.585938-3.359376 3.007812-4.753907 1.417969-1.402343 3.484376-2.101562 6.191407-2.101562 2.699219 0 5 .902343 6.886719 2.695312 1.894531 1.796875 2.832031 4.046875 2.832031 6.75 0 1.914063-.511719 4.964844-1.53125 9.164063l-17.074219 69.042968c-1.167969 4.664063-2.132812 8.082032-2.898438 10.253907-.773437 2.164062-2.082031 4.070312-3.921874 5.699219-1.839844 1.632812-4.441407 2.449218-7.796876 2.449218-3.175781 0-5.714843-.792968-7.628906-2.378906-1.914062-1.585938-3.238281-3.371094-3.988281-5.351562-.75-1.980469-1.796875-5.375-3.148437-10.179688zm0 0"/><path d="m382.765625 348.160156-184.320313 13.652344v-20.480469h184.320313zm0 0"/><path d="m198.445312 368.640625c-1.71875 0-3.378906-.648437-4.648437-1.824219-1.382813-1.292968-2.175781-3.105468-2.175781-5.003906v-20.480469c0-3.769531 3.050781-6.828125 6.824218-6.828125h184.320313c3.773437 0 6.828125 3.058594 6.828125 6.828125v6.828125c0 3.574219-2.761719 6.542969-6.320312 6.804688l-184.320313 13.652344c-.175781.015624-.339844.023437-.507813.023437zm6.828126-20.480469v6.300782l85.078124-6.300782zm177.492187 0h.066406zm0 0"/></g><path d="m150.660156 361.8125c-3.773437 0-6.828125-3.058594-6.828125-6.828125v-27.304687c0-3.769532 3.054688-6.828126 6.828125-6.828126 3.773438 0 6.824219 3.058594 6.824219 6.828126v27.304687c0 3.769531-3.050781 6.828125-6.824219 6.828125zm0 0" fill="#fff"/><path d="m164.3125 348.160156h-27.304688c-3.773437 0-6.828124-3.058594-6.828124-6.828125s3.054687-6.828125 6.828124-6.828125h27.304688c3.773438 0 6.828125 3.058594 6.828125 6.828125s-3.054687 6.828125-6.828125 6.828125zm0 0" fill="#fff"/><path d="m362.285156 143.359375c-3.773437 0-6.824218-3.058594-6.824218-6.828125v-54.613281c0-3.769531 3.050781-6.824219 6.824218-6.824219 3.773438 0 6.828125 3.054688 6.828125 6.824219v54.613281c0 3.769531-3.054687 6.828125-6.828125 6.828125zm0 0" fill="#fff"/></svg>