<svg id="Capa_1" enable-background="new 0 0 512 512" height="512" viewBox="0 0 512 512" width="512" xmlns="http://www.w3.org/2000/svg"><g><g><g><g><g><g><g><path d="m271.134.44c134.34 7.832 240.866 119.256 240.866 255.56 0 141.385-114.615 256-256 256s-256-114.615-256-256c0-136.299 106.518-247.719 240.851-255.559z" fill="#7584f2"/></g></g></g></g></g></g><path d="m512 256c0-5.086-.149-10.137-.441-15.149l-240.409-240.41-61.554 339.057-65.892-65.892-60.578 30.299 72.902 72.902-44.454 23.997 108.727 108.728c11.666 1.627 23.584 2.468 35.699 2.468 141.385 0 256-114.615 256-256z" fill="#4253ce"/><g><path d="m271.149.441c-5.012-.292-10.063-.441-15.149-.441s-10.137.149-15.149.441v146.939h30.299v-146.939z" fill="#e9edf5"/></g><g><path d="m271.149.441c-5.012-.292-10.063-.441-15.149-.441-.042 0-.084.002-.127.002v147.378h15.276z" fill="#cdd2e1"/></g><g><path d="m300.601 160.15v-4.951h-89.202v4.952c0 24.796-8.61 48.721-23.945 68.207-11.726 14.9-18.697 33.717-18.628 54.165.159 47.319 38.617 86.208 85.932 86.867 48.714.678 88.417-38.607 88.417-87.166 0-20.701-7.215-39.716-19.268-54.668-15.341-19.031-23.306-42.961-23.306-67.406z" fill="#ffce00"/></g><g><path d="m300.601 160.15v-4.951h-44.728v214.192c48.203.068 87.301-38.98 87.301-87.167 0-20.701-7.215-39.716-19.268-54.668-15.34-19.031-23.305-42.961-23.305-67.406z" fill="#fdba12"/></g><g><path d="m211.401 97.231h89.198v62.34h-89.198z" fill="#fff"/></g><g><path d="m255.873 97.231h44.726v62.34h-44.726z" fill="#e9edf5"/></g><g><path d="m240.851 398.887h30.299v60.578h-30.299z" fill="#fff"/></g><g><path d="m255.873 398.887h15.276v60.578h-15.276z" fill="#e9edf5"/></g><g><path d="m353.147 359.809h30.299v60.578h-30.299z" fill="#e9edf5" transform="matrix(.707 -.707 .707 .707 -167.969 374.682)"/></g><g><path d="m128.554 359.809h30.299v60.578h-30.299z" fill="#fff" transform="matrix(-.707 -.707 .707 -.707 -30.524 767.553)"/></g><g><g><path d="m383.437 258.466h30.299v60.578h-30.299z" fill="#e9edf5" transform="matrix(0 -1 1 0 109.831 687.341)"/></g><g><path d="m98.265 258.466h30.299v60.578h-30.299z" fill="#fff" transform="matrix(0 -1 1 0 -175.341 402.17)"/></g></g></g></svg>