<svg id="Capa_1" enable-background="new 0 0 512 512" height="512" viewBox="0 0 512 512" width="512" xmlns="http://www.w3.org/2000/svg"><g><path d="m489.699 154.6-44.597 10.071 13.398-63.472c-46.5-60.899-120-101.199-202.5-101.199-140.7 0-256 115.3-256 256 0 27.9 5.501 54.6 13.9 79.799l46.013-3.847-18.712 61.148c45.298 70.8 124.499 118.9 214.799 118.9 140.7 0 256-115.3 256-256 0-36-8.5-70.201-22.301-101.4z" fill="#4086f4"/><path d="m512 256c0-36-8.5-70.201-22.301-101.4l-44.597 10.071 13.398-63.472c-46.5-60.899-120-101.199-202.5-101.199v512c140.7 0 256-115.3 256-256z" fill="#4175df"/><g><g><g><path d="m196 238.299-154.799 154.801c-11.4-17.701-20.7-36.901-27.301-57.301l139.801-139.799 42.009 5.418z" fill="#e3e7ea"/></g></g></g><g><path d="m489.699 154.6-167.398 167.699c-11.7 11.7-30.901 11.7-42.601 0l-83.699-84-42.3-42.299 20.999-21.301c11.7-11.7 30.901-11.7 42.601 0l83.699 84 157.5-157.5c12.599 16.201 23.101 34.2 31.199 53.401z" fill="#fff5f5"/></g><g><path d="m301 258.699-45-45.161v84.977l23.699 23.784c11.7 11.7 30.901 11.7 42.601 0l167.399-167.699c-8.099-19.2-18.6-37.2-31.199-53.401z" fill="#e3e7ea"/></g></g></svg>