<?xml version="1.0" encoding="iso-8859-1"?>
<!-- Generator: Adobe Illustrator 19.0.0, SVG Export Plug-In . SVG Version: 6.00 Build 0)  -->
<svg version="1.1" id="Layer_1" xmlns="http://www.w3.org/2000/svg" xmlns:xlink="http://www.w3.org/1999/xlink" x="0px" y="0px"
	 viewBox="0 0 460 460" style="enable-background:new 0 0 460 460;" xml:space="preserve">
<g id="XMLID_1063_">
	<path id="XMLID_1064_" style="fill:#1D54BD;" d="M223.062,459.887l230.131-285.59C428.288,74.188,337.815,0,230,0
		C102.974,0,0,102.974,0,230C0,354.704,99.247,456.217,223.062,459.887z"/>
	<path id="XMLID_1065_" style="fill:#12398F;" d="M460,230c0-19.211-2.37-37.866-6.807-55.704L368.396,89.5l-80,116.792
		L171.604,89.5l-39.465,279.465l90.922,90.922c2.305,0.068,4.617,0.113,6.938,0.113C357.026,460,460,357.025,460,230z"/>
	<polygon id="XMLID_1066_" style="fill:#FFFFFF;" points="131.604,169.5 111.604,179.5 91.604,169.5 91.604,89.5 131.604,89.5 
		141.604,129.5 	"/>
	<polygon id="XMLID_1067_" style="fill:#FFF2D4;" points="171.604,169.5 151.604,179.5 131.604,169.5 131.604,89.5 171.604,89.5 	
		"/>
	<polygon id="XMLID_1068_" style="fill:#FFF2D4;" points="328.396,169.5 308.396,179.5 288.396,169.5 288.396,89.5 328.396,89.5 
		338.396,129.5 	"/>
	<polygon id="XMLID_1069_" style="fill:#FFE278;" points="368.396,169.5 348.396,179.5 328.396,169.5 328.396,89.5 368.396,89.5 	
		"/>
	<path id="XMLID_1070_" style="fill:#FE843F;" d="M230,329.5c-32.2,0-58.4-26.2-58.4-58.4V169.5h-60v101.6
		c0,65.286,53.114,118.4,118.4,118.4l10-40L230,329.5z"/>
	<path id="XMLID_1071_" style="fill:#FC5A37;" d="M230,369.5l10,20l-10,20c-76.31,0-138.4-62.08-138.4-138.4V169.5h40v101.6
		C131.6,325.36,175.74,369.5,230,369.5z"/>
	<path id="XMLID_1072_" style="fill:#12B5FF;" d="M230,369.5v40c76.31,0,138.4-62.08,138.4-138.4V169.5h-40v101.6
		C328.4,325.36,284.26,369.5,230,369.5z"/>
	<path id="XMLID_1073_" style="fill:#48D9FF;" d="M230,329.5v40c54.26,0,98.4-44.14,98.4-98.4V169.5h-40v101.6
		C288.4,303.3,262.2,329.5,230,329.5z"/>
</g>
<g>
</g>
<g>
</g>
<g>
</g>
<g>
</g>
<g>
</g>
<g>
</g>
<g>
</g>
<g>
</g>
<g>
</g>
<g>
</g>
<g>
</g>
<g>
</g>
<g>
</g>
<g>
</g>
<g>
</g>
</svg>
