<svg id="Capa_1" enable-background="new 0 0 512 512" height="512" viewBox="0 0 512 512" width="512" xmlns="http://www.w3.org/2000/svg"><g><g><g><g><g><g><g><circle cx="256" cy="256" fill="#ffce00" r="256"/></g></g></g></g></g></g><path d="m321.955 90.802-3.989 2.402-25.138-25.138-11.293 16.583-46.149-46.149-98.626 210.236 102.529 102.529-70.143 92.225 67.812 67.812c6.287.463 12.637.698 19.042.698 133.374 0 242.926-101.995 254.912-232.241z" fill="#ffa300"/><path d="m351.522 160.792c3.061-4.657 4.842-10.23 4.842-16.219 0-16.329-13.237-29.566-29.566-29.566h-3.039c1.928-3.16 3.039-6.874 3.039-10.847 0-11.519-9.338-20.856-20.856-20.856h-8.996v-2.976c0-11.228-9.102-20.329-20.329-20.329h-12.779c-13.532 0-24.941-9.092-28.452-21.5h-2.619c-16.329 0-29.566 13.237-29.566 29.566 0 5.575 1.543 10.789 4.225 15.239h-1.369c-11.519 0-20.856 9.338-20.856 20.856 0 3.973 1.111 7.686 3.039 10.847h-3.039c-16.329 0-29.566 13.237-29.566 29.566 0 5.989 1.781 11.562 4.842 16.219-13.799 4.736-23.718 17.825-23.718 33.231 0 19.4 15.727 35.126 35.126 35.126h168.227c19.4 0 35.126-15.726 35.126-35.126.002-15.406-9.916-28.495-23.716-33.231z" fill="#fff"/><path d="m256.121 229.149h83.993c19.4 0 35.126-15.726 35.126-35.126 0-15.406-9.918-28.495-23.718-33.231 3.061-4.657 4.842-10.23 4.842-16.219 0-16.329-13.237-29.566-29.566-29.566h-3.039c1.928-3.16 3.039-6.874 3.039-10.847 0-11.519-9.338-20.856-20.856-20.856h-8.996v-2.976c0-11.228-9.102-20.329-20.329-20.329h-12.779c-2.672 0-5.256-.367-7.717-1.031z" fill="#e9edf5"/><g><path d="m342.854 443.491h-173.708l-21.444-209.127h216.596z" fill="#ff636e"/></g><g><path d="m364.298 234.364h-108.177v209.126h86.733z" fill="#f03049"/></g><g><path d="m136.76 209.563h238.479v39.174h-238.479z" fill="#ff9696"/></g><g><path d="m256.121 209.563h119.119v39.174h-119.119z" fill="#ff636e"/></g><g><ellipse cx="256" cy="343.859" fill="#fff" rx="55.119" ry="55.119" transform="matrix(.16 -.987 .987 .16 -124.426 541.473)"/></g><g><path d="m311.119 343.859c0-30.401-24.613-55.051-54.999-55.116v110.232c30.386-.065 54.999-24.715 54.999-55.116z" fill="#e9edf5"/></g></g></svg>