<svg id="Capa_1" enable-background="new 0 0 512 512" height="512" viewBox="0 0 512 512" width="512" xmlns="http://www.w3.org/2000/svg"><g><g><g><g><g><g><g><g><g><path d="m0 256c0-141.385 114.615-256 256-256s256 114.615 256 256c0 44.675-11.443 86.676-31.559 123.234-43.546 79.139-405.247 79.196-448.813.125-20.158-36.587-31.628-78.633-31.628-123.359z" fill="#a3d4ff"/></g></g></g></g></g></g></g></g><path d="m480.022 379.992c18.856-33.995 30.198-72.734 31.785-113.974l-48.416-48.416-402.058 75.661 44.304 44.304-9.175 7.656 139.458 139.458s201.519-27.916 244.102-104.689z" fill="#65b1fc"/><g><path d="m81.864 282.244 14.598 62.979 149.432-57.091z" fill="#f03049"/></g><g><path d="m58.049 265.425 3.284 27.839c37.457 16.842 73.377 27.384 145.505 20.529 4.477-.425 14.043-3.623 18.808-4.186 11.205-1.322 17.532-.235 28.765-2.116 15.445-2.587 30.808-5.67 45.789-9.161 10.691-2.491 31.301-10.334 31.301-10.334s15.377-2.191 22.715-4.559c58.345-18.826 102.681-43.134 109.176-65.835l-66.616 7.859-23.384 5.385-23.62.16-42.742 5.043-25.918 5.711-21.076-.167z" fill="#ff636e"/></g><path d="m396.776 225.462-23.384 5.385-23.62.16-42.742 5.043-25.918 5.711-19.71-.156v64.657c13.084-2.321 26.081-4.97 38.798-7.933 10.691-2.491 31.301-10.334 31.301-10.334s15.376-2.191 22.715-4.559c58.345-18.826 102.681-43.134 109.176-65.835z" fill="#f03049"/><g><path d="m300.216 298.326c18.806-4.382 37.012-9.406 54.025-14.897l42.72-57.989-47.149 5.563z" fill="#e9edf5"/></g><g><path d="m206.837 313.793c4.477-.426 9.094-.918 13.859-1.48 11.251-1.327 22.573-2.954 33.851-4.845l52.624-71.434-47.149 5.563z" fill="#fff"/></g><g><path d="m261.401 241.433v56.731l45.771-62.131z" fill="#e9edf5"/></g><g><path d="m478.103 378.525c-37.02 0-37.02-20-74.041-20-37.019 0-37.019 20-74.037 20s-37.018-20-74.035-20c-37.016 0-37.016 20-74.032 20-37.017 0-37.017-20-74.035-20s-37.018 20-74.035 20c-.936 0-1.848-.013-2.739-.038 43.426 79.548 127.837 133.513 224.851 133.513s181.425-53.965 224.85-133.514c-.893.026-1.807.039-2.747.039z" fill="#7584f2"/></g><g><path d="m480.85 378.486c-.893.025-1.808.039-2.747.039-37.02 0-37.02-20-74.041-20-37.019 0-37.019 20-74.037 20-36.973 0-37.022-19.949-73.905-19.998v153.472c96.964-.045 181.323-53.997 224.73-133.513z" fill="#606aea"/></g></g></svg>