<?xml version="1.0"?>
<svg xmlns="http://www.w3.org/2000/svg" xmlns:xlink="http://www.w3.org/1999/xlink" xmlns:svgjs="http://svgjs.com/svgjs" version="1.1" width="512" height="512" x="0" y="0" viewBox="0 0 512 512" style="enable-background:new 0 0 512 512" xml:space="preserve" class=""><g>
<g xmlns="http://www.w3.org/2000/svg">
	<g>
		<path d="M491.422,138.859c-13.008-26.609-32.129-49.151-56.831-66.999C390.803,40.223,329.047,23.5,256,23.5    S121.197,40.222,77.409,71.86c-24.702,17.848-43.823,40.39-56.831,66.999C6.924,166.791,0,199.305,0,235.5    c0,78.284,32.285,138.172,93.615,174.195c-8.484,29.931-19.492,48.07-19.591,48.232l-18.983,30.52l35.955,0.053H91.1    c0.103,0,0.208,0,0.319,0c11.347,0,63.406-2.448,105.735-44.909c18.66,2.596,38.404,3.909,58.846,3.909    c73.047,0,134.803-16.723,178.591-48.36c24.702-17.849,43.823-40.39,56.831-66.999C505.076,304.209,512,271.695,512,235.5    S505.076,166.79,491.422,138.859z M411.164,366.717C374.237,393.397,320.583,407.5,256,407.5c-22.191,0-43.365-1.685-62.935-5.009    l-11.136-1.891l-7.369,8.56c-15.834,18.39-34.114,28.21-49.632,33.439c4.03-10.872,8.111-23.919,11.404-38.786l3.395-15.321    l-14.073-6.941C68.818,353.516,40,304.377,40,235.5c0-57.903,20.468-102.051,60.836-131.217C137.762,77.603,191.417,63.5,256,63.5    s118.238,14.102,155.164,40.783C451.532,133.449,472,177.598,472,235.5C472,293.402,451.532,337.55,411.164,366.717z" fill="#1273eb" data-original="#1273eb" style="" class=""/>
	</g>
</g>
</g></svg>
