<?xml version="1.0"?>
<svg xmlns="http://www.w3.org/2000/svg" xmlns:xlink="http://www.w3.org/1999/xlink" xmlns:svgjs="http://svgjs.com/svgjs" version="1.1" width="512" height="512" x="0" y="0" viewBox="0 0 512 512" style="enable-background:new 0 0 512 512" xml:space="preserve" class=""><g><path xmlns="http://www.w3.org/2000/svg" d="m453.332031 0h-394.664062c-32.363281 0-58.667969 26.304688-58.667969 58.667969v394.664062c0 32.363281 26.304688 58.667969 58.667969 58.667969h394.664062c32.363281 0 58.667969-26.304688 58.667969-58.667969v-394.664062c0-32.363281-26.304688-58.667969-58.667969-58.667969zm0 0" fill="#1273eb" data-original="#2196f3" style="" class=""/><path xmlns="http://www.w3.org/2000/svg" d="m368 277.332031h-90.667969v90.667969c0 11.777344-9.535156 21.332031-21.332031 21.332031s-21.332031-9.554687-21.332031-21.332031v-90.667969h-90.667969c-11.796875 0-21.332031-9.554687-21.332031-21.332031s9.535156-21.332031 21.332031-21.332031h90.667969v-90.667969c0-11.777344 9.535156-21.332031 21.332031-21.332031s21.332031 9.554687 21.332031 21.332031v90.667969h90.667969c11.796875 0 21.332031 9.554687 21.332031 21.332031s-9.535156 21.332031-21.332031 21.332031zm0 0" fill="#fafafa" data-original="#fafafa" style=""/></g></svg>
